<svg width="24" height="24" viewBox="0 0 24 24" fill="none" xmlns="http://www.w3.org/2000/svg">
<path d="M15.5187 8.90616C15.2944 8.90546 15.0793 8.99405 14.9211 9.15226L11.0187 13.0547L9.08513 11.1211C8.75537 10.7913 8.21958 10.7913 7.88982 11.1211C7.56006 11.4509 7.56006 11.9866 7.88982 12.3164L10.421 14.8476C10.5792 15.0065 10.7943 15.0958 11.0186 15.0958C11.2429 15.0958 11.4581 15.0065 11.6163 14.8476L16.1163 10.3476C16.3582 10.1064 16.4313 9.74287 16.2998 9.42647C16.169 9.11077 15.8605 8.90546 15.5187 8.90616Z" fill="url(#paint0_linear_36_176)"/>
<path d="M12 3C7.02966 3 3 7.02966 3 12C3 16.9703 7.02966 21 12 21C16.9703 21 21 16.9703 21 12C21 7.02966 16.9703 3 12 3ZM12 19.3125C7.96116 19.3125 4.6875 16.0387 4.6875 12C4.6875 7.96134 7.96134 4.6875 12 4.6875C16.0387 4.6875 19.3125 7.96134 19.3125 12C19.3125 16.0387 16.0387 19.3125 12 19.3125Z" fill="url(#paint1_linear_36_176)"/>
<defs>
<linearGradient id="paint0_linear_36_176" x1="3" y1="15.3375" x2="20.5552" y2="18.1318" gradientUnits="userSpaceOnUse">
<stop stop-color="#FC8D43"/>
<stop offset="1" stop-color="#FB258D"/>
</linearGradient>
<linearGradient id="paint1_linear_36_176" x1="3" y1="15.3375" x2="20.5552" y2="18.1318" gradientUnits="userSpaceOnUse">
<stop stop-color="#FC8D43"/>
<stop offset="1" stop-color="#FB258D"/>
</linearGradient>
</defs>
</svg>
