<svg width="32" height="32" viewBox="0 0 32 32" fill="none" xmlns="http://www.w3.org/2000/svg">
<path d="M19.1822 29H10.8178C10.0423 29 9.31336 28.6979 8.76485 28.1498L2.85023 22.2352C2.30173 21.6867 2 20.9578 2 20.1822V11.8178C2 11.0422 2.30207 10.3133 2.85023 9.76483L8.76485 3.85023C9.31301 3.30173 10.0423 3 10.8178 3H19.1822C19.9578 3 20.6867 3.30207 21.2352 3.85023L27.7571 10.3721C28.081 10.6959 28.081 11.2213 27.7571 11.5451C27.4333 11.869 26.9079 11.869 26.5841 11.5451L20.0622 5.02326C19.8272 4.78824 19.5147 4.65898 19.1822 4.65898H10.8178C10.4854 4.65898 10.1729 4.78824 9.93789 5.02326L4.02327 10.9379C3.78825 11.1729 3.65898 11.4853 3.65898 11.8178V20.1822C3.65898 20.5147 3.78825 20.8271 4.02327 21.0621L9.93789 26.9767C10.1729 27.2118 10.4854 27.341 10.8178 27.341H19.1822C19.5147 27.341 19.8272 27.2118 20.0622 26.9767L26.5841 20.4549C26.9079 20.131 27.4333 20.131 27.7571 20.4549C28.081 20.7787 28.081 21.3041 27.7571 21.6279L21.2352 28.1498C20.6867 28.6983 19.9578 29 19.1822 29Z" fill="white"/>
<path fill-rule="evenodd" clip-rule="evenodd" d="M7.15273 20.9997V18.7917C9.50451 17.1251 11.5085 15.6295 11.5085 14.2192C11.5085 13.5926 11.1607 13.0653 10.3118 13.0653C9.46283 13.0653 8.94799 13.6349 8.94799 14.4329C8.94799 14.5325 8.94799 14.6182 8.96199 14.7179L7.04168 14.9032C7.014 14.7039 7 14.5042 7 14.3049C7 12.2393 8.47516 11 10.4792 11C12.4832 11 13.6799 12.3106 13.6799 14.0342C13.6799 15.9002 12.1907 17.1538 9.88063 18.7921H14V21H7.15305L7.15273 20.9997ZM28 19C27.5431 19 27.1724 18.6293 27.1724 18.1724V16.801H25.8276C25.3707 16.801 25 16.4303 25 15.9734C25 15.5166 25.3707 15.1459 25.8276 15.1459H27.1724V13.8276C27.1724 13.3707 27.5431 13 28 13C28.4569 13 28.8276 13.3707 28.8276 13.8276V15.1459H30.1724C30.6293 15.1459 31 15.5166 31 15.9734C31 16.4303 30.6293 16.801 30.1724 16.801H28.8276V18.1724C28.8276 18.6293 28.4569 19 28 19ZM15 18.8872H19.8948V21H22.4212V18.8872H24V16.6441H22.4212V15.0522H19.8948V16.6441H17.9052L21.9158 11H18.9633L15 16.6441V18.8872Z" fill="white"/>
</svg>
