<svg width="242" height="104" viewBox="0 0 242 104" fill="none" xmlns="http://www.w3.org/2000/svg">
<g clip-path="url(#clip0_521_460)">
<path d="M75.1385 86.1877C70.1049 86.1877 66.8379 90.0248 66.8379 95.0203C66.8379 100.016 70.1049 103.877 75.1385 103.877C80.1963 103.877 83.4633 100.016 83.4633 95.0203C83.4633 90.0248 80.1963 86.1877 75.1385 86.1877ZM70.1049 95.0203C70.1049 91.5934 72.0651 89.2043 75.1385 89.2043C78.2361 89.2043 80.1963 91.5934 80.1963 95.0203C80.1963 98.4471 78.2361 100.86 75.1385 100.86C72.0651 100.86 70.1049 98.4471 70.1049 95.0203Z" fill="url(#paint0_linear_521_460)"/>
<path d="M100.578 86.5497H97.4322V98.3988L90.1722 86.5497H86.6148V103.491H89.7608V91.69L96.9966 103.491H100.578V86.5497Z" fill="url(#paint1_linear_521_460)"/>
<path d="M104.93 103.491H115.239V100.619H108.076V86.5497H104.93V103.491Z" fill="url(#paint2_linear_521_460)"/>
<path d="M121.29 86.5497H118.144V103.491H121.29V86.5497Z" fill="url(#paint3_linear_521_460)"/>
<path d="M139.383 86.5497H136.237V98.3988L128.977 86.5497H125.42V103.491H128.566V91.69L135.802 103.491H139.383V86.5497Z" fill="url(#paint4_linear_521_460)"/>
<path d="M143.735 103.491H154.722V100.619H146.881V96.3717H153.004V93.4999H146.881V89.3974H154.722V86.5497H143.735V103.491Z" fill="url(#paint5_linear_521_460)"/>
<path d="M198.209 48.5525H227.595C235.551 48.5525 242 54.9838 242 62.9171C242 70.8505 235.551 77.2818 227.595 77.2818L198.209 77.2818C190.254 77.2818 183.805 70.8505 183.805 62.9171C183.805 54.9838 190.254 48.5525 198.209 48.5525Z" fill="url(#paint6_linear_521_460)"/>
<path d="M187.55 62.9172C187.55 68.7879 192.322 73.547 198.209 73.547C204.096 73.547 208.869 68.7879 208.869 62.9172C208.869 57.0465 204.096 52.2874 198.209 52.2874C192.322 52.2874 187.55 57.0465 187.55 62.9172Z" fill="white"/>
<path d="M223.94 57.2703H221.842V65.1697L217.002 57.2703H214.631V68.5643H216.728V60.6971L221.552 68.5643H223.94V57.2703Z" fill="white"/>
<path d="M226.841 68.5643H233.714V66.6498H228.938V57.2703H226.841V68.5643Z" fill="white"/>
<path d="M162.361 72.0346C163.637 72.0346 164.806 71.8026 165.869 71.3385C166.932 70.8753 167.862 70.2389 168.66 69.4301C169.457 68.6222 170.082 67.6609 170.534 66.5479C170.986 65.4347 171.212 64.2419 171.212 62.9697C171.212 61.671 170.986 60.4717 170.534 59.3713C170.082 58.2719 169.457 57.3177 168.66 56.5087C167.862 55.7005 166.932 55.0646 165.869 54.6003C164.806 54.1368 163.637 53.9048 162.361 53.9048C161.111 53.9048 159.955 54.1368 158.892 54.6003C157.828 55.0646 156.899 55.7005 156.101 56.5087C155.304 57.3177 154.679 58.2719 154.227 59.3713C153.775 60.4717 153.549 61.6574 153.549 62.9296C153.549 64.2289 153.775 65.4347 154.227 66.5479C154.679 67.6609 155.304 68.6222 156.101 69.4301C156.899 70.2389 157.828 70.8753 158.892 71.3385C159.955 71.8026 161.111 72.0346 162.361 72.0346ZM162.361 77.3224C160.287 77.3224 158.36 76.9575 156.58 76.2288C154.799 75.5003 153.237 74.4794 151.895 73.1674C150.552 71.8556 149.503 70.3318 148.745 68.5952C147.988 66.8597 147.609 64.984 147.609 62.9697C147.609 60.9553 147.988 59.0802 148.745 57.3439C149.503 55.6081 150.552 54.0834 151.895 52.7717C153.237 51.4594 154.799 50.4393 156.58 49.71C158.36 48.9816 160.287 48.6169 162.361 48.6169C164.434 48.6169 166.367 48.9816 168.162 49.71C169.956 50.4393 171.524 51.4594 172.866 52.7717C174.208 54.0834 175.251 55.6081 175.996 57.3439C176.739 59.0802 177.112 60.9553 177.112 62.9697C177.112 64.984 176.739 66.8597 175.996 68.5952C175.251 70.3318 174.208 71.8556 172.866 73.1674C171.524 74.4794 169.956 75.5003 168.162 76.2288C166.367 76.9575 164.434 77.3224 162.361 77.3224Z" fill="white"/>
<path d="M66.9945 66.2285H73.7376L70.4077 56.7584L66.9945 66.2285ZM57.2768 76.8636L67.4732 48.9419H73.0478L83.1965 76.8636H77.6492L75.3859 70.6627H65.3992L63.1119 76.8636H57.2768Z" fill="white"/>
<path d="M126.297 27.0362H133.041L129.711 17.5662L126.297 27.0362ZM116.58 37.6713L126.776 9.74957H132.351L142.499 37.6713H136.952L134.689 31.4707H124.702L122.415 37.6713H116.58Z" fill="white"/>
<path d="M33.47 0V19.6673H15.087V0H8.37856V19.6673L6.87882 19.6596H1.93913L0 24.9731H6.87882L8.37856 24.981V47.0681H15.087V24.987H33.47V43.0873L40.1782 40.6259V0H33.47Z" fill="white"/>
<path d="M178.962 32.5659H182.775C183.964 32.5659 185.072 32.3475 186.097 31.9112C187.123 31.4747 188.021 30.8595 188.793 30.0663C189.565 29.2727 190.16 28.3471 190.578 27.2889C190.995 26.2312 191.204 25.081 191.204 23.8373C191.204 22.5944 190.989 21.4371 190.559 20.3658C190.128 19.2948 189.534 18.3624 188.774 17.5688C188.015 16.7753 187.123 16.1539 186.097 15.704C185.072 15.2547 183.964 15.0297 182.775 15.0297H178.962L178.962 32.5659ZM173.457 37.6838V9.91154H182.851C184.85 9.91154 186.698 10.2626 188.395 10.963C190.09 11.6639 191.571 12.6489 192.837 13.9184C194.102 15.1882 195.096 16.6699 195.817 18.3624C196.539 20.0554 196.9 21.8804 196.9 23.8373C196.9 25.8208 196.545 27.6462 195.837 29.3125C195.127 30.9788 194.134 32.4406 192.856 33.6963C191.577 34.9533 190.09 35.9317 188.395 36.6324C186.698 37.3336 184.85 37.6838 182.851 37.6838L173.457 37.6838Z" fill="white"/>
<path d="M58.158 32.8207C59.4341 32.8207 60.6032 32.5889 61.6668 32.1249C62.7291 31.6614 63.6597 31.0253 64.4574 30.2165C65.2548 29.4085 65.879 28.4473 66.3315 27.3343C66.7829 26.2211 67.009 25.0281 67.009 23.7558C67.009 22.4574 66.7829 21.2578 66.3315 20.1577C65.879 19.0583 65.2548 18.1038 64.4574 17.2951C63.6597 16.4868 62.7291 15.851 61.6668 15.3869C60.6032 14.9232 59.4341 14.6909 58.158 14.6909C56.9084 14.6909 55.7522 14.9232 54.6894 15.3869C53.6258 15.851 52.6959 16.4868 51.8985 17.2951C51.1012 18.1038 50.4764 19.0583 50.0247 20.1577C49.5725 21.2578 49.3466 22.4438 49.3466 23.716C49.3466 25.015 49.5725 26.2211 50.0247 27.3343C50.4764 28.4473 51.1012 29.4085 51.8985 30.2165C52.6959 31.0253 53.6258 31.6614 54.6894 32.1249C55.7522 32.5889 56.9084 32.8207 58.158 32.8207ZM58.158 38.1088C56.0848 38.1088 54.1577 37.7439 52.377 37.0152C50.596 36.2867 49.0342 35.2661 47.6923 33.9538C46.3499 32.6418 45.3002 31.1179 44.5429 29.3816C43.7851 27.6458 43.4061 25.7704 43.4061 23.7558C43.4061 21.7417 43.7851 19.8666 44.5429 18.1303C45.3002 16.3945 46.3499 14.8698 47.6923 13.5581C49.0342 12.2458 50.596 11.2257 52.377 10.4967C54.1577 9.76796 56.0848 9.40305 58.158 9.40305C60.2315 9.40305 62.1649 9.76796 63.959 10.4967C65.7531 11.2257 67.3214 12.2458 68.6639 13.5581C70.0055 14.8698 71.0489 16.3945 71.7936 18.1303C72.5369 19.8666 72.9099 21.7417 72.9099 23.7558C72.9099 25.7704 72.5369 27.6458 71.7936 29.3816C71.0489 31.1179 70.0055 32.6418 68.6639 33.9538C67.3214 35.2661 65.7531 36.2867 63.959 37.0152C62.1649 37.7439 60.2315 38.1088 58.158 38.1088Z" fill="white"/>
<path d="M76.2985 37.6713V9.86231H82.1606V32.7108H93.7227V37.6713H76.2985Z" fill="white"/>
<path d="M97.1001 37.6713V9.86231H102.962V32.7108H114.686L112.897 37.6713H97.1001Z" fill="white"/>
<path d="M163.358 28.3796V9.86237H168.753V37.6714H163.358L151.196 19.7831H151.123V37.6714H145.729V9.86237H150.929L163.358 28.3796Z" fill="white"/>
<path d="M114.937 49.0758H109.11V76.8848H114.937V49.0758Z" fill="white"/>
<path d="M88.6631 75.9256C86.8804 74.9945 85.5503 73.9123 84.6715 72.679L88.2112 69.0588C88.9646 69.8989 89.8619 70.6132 90.904 71.2036C91.9455 71.7937 93.1192 72.0889 94.425 72.0889C95.7552 72.0889 96.7975 71.7741 97.5504 71.1445C98.3036 70.5149 98.6804 69.7671 98.6804 68.9014C98.6804 68.0101 98.2905 67.3149 97.5127 66.816C96.7342 66.3182 95.5168 65.7804 93.86 65.2028C92.1525 64.5996 90.7593 64.0163 89.6801 63.4516C88.6003 62.8879 87.671 62.0548 86.8933 60.9531C86.1147 59.8515 85.7262 58.4219 85.7262 56.6641C85.7262 55.1429 86.1273 53.7658 86.931 52.5322C87.7344 51.2997 88.8515 50.3357 90.2827 49.6402C91.7137 48.9455 93.3199 48.5975 95.1026 48.5975C97.1108 48.5975 98.912 48.9975 100.506 49.7976C102.1 50.5982 103.274 51.4966 104.028 52.4933L100.488 56.1132C99.9101 55.51 99.182 54.9722 98.3036 54.5C97.4245 54.0278 96.4829 53.7917 95.4794 53.7917C94.2492 53.7917 93.3011 54.067 92.6361 54.6176C91.9706 55.1688 91.6383 55.8376 91.6383 56.6248C91.6383 57.5167 92.0269 58.2122 92.8054 58.7103C93.5834 59.2089 94.8136 59.7467 96.4961 60.3237C98.2031 60.9272 99.5963 61.5108 100.676 62.0745C101.755 62.639 102.684 63.4714 103.463 64.5732C104.24 65.675 104.63 67.1052 104.63 68.8625C104.63 70.3839 104.228 71.7937 103.425 73.0924C102.621 74.3911 101.479 75.4207 99.9983 76.1813C98.5166 76.9419 96.7975 77.3226 94.839 77.3226C92.5042 77.3226 90.4455 76.8564 88.6631 75.9256Z" fill="white"/>
<path d="M138.593 67.5933V49.076H143.987V76.885H138.593L126.43 58.9968H126.358V76.885H120.963V49.076H126.163L138.593 67.5933Z" fill="white"/>
<path d="M58.6455 88.313C57.9929 88.5534 57.3266 88.7659 56.6466 88.9459C54.6777 89.4799 52.6078 89.7628 50.4696 89.7628C37.4356 89.7628 26.8702 79.2271 26.8702 66.2295C26.8702 53.2318 37.4356 42.6958 50.4696 42.6958C52.2689 42.6958 54.0223 42.8974 55.7042 43.2783C55.7372 43.284 55.77 43.2895 55.8001 43.2974C57.3566 43.6568 58.8531 44.1661 60.2728 44.8142L60.2649 51.233L58.5661 50.4895C56.1168 49.4218 53.5253 48.8829 50.8628 48.8829C48.416 48.8829 46.1222 49.3238 44.0441 50.1954C41.9657 51.0696 40.1363 52.2977 38.6071 53.8445C37.0751 55.394 35.8681 57.2403 35.0131 59.3314C34.1614 61.4255 33.7299 63.7459 33.7299 66.2295C33.7299 68.6694 34.1614 70.9678 35.0131 73.0592C35.8681 75.1533 37.097 77.0105 38.6726 78.5815C40.248 80.153 42.1107 81.3891 44.2076 82.2608C46.3052 83.1322 48.6099 83.576 51.0594 83.576C53.7244 83.576 56.2834 83.0341 58.6646 81.9664C59.6149 81.5418 60.5188 81.0381 61.3572 80.4686L61.5456 80.3409L58.6455 88.313Z" fill="white"/>
</g>
<defs>
<linearGradient id="paint0_linear_521_460" x1="66.8379" y1="98.3122" x2="120.909" y2="141.071" gradientUnits="userSpaceOnUse">
<stop stop-color="#FC8D43"/>
<stop offset="1" stop-color="#FB258D"/>
</linearGradient>
<linearGradient id="paint1_linear_521_460" x1="66.8379" y1="98.3122" x2="120.909" y2="141.071" gradientUnits="userSpaceOnUse">
<stop stop-color="#FC8D43"/>
<stop offset="1" stop-color="#FB258D"/>
</linearGradient>
<linearGradient id="paint2_linear_521_460" x1="66.8379" y1="98.3122" x2="120.909" y2="141.071" gradientUnits="userSpaceOnUse">
<stop stop-color="#FC8D43"/>
<stop offset="1" stop-color="#FB258D"/>
</linearGradient>
<linearGradient id="paint3_linear_521_460" x1="66.8379" y1="98.3122" x2="120.909" y2="141.071" gradientUnits="userSpaceOnUse">
<stop stop-color="#FC8D43"/>
<stop offset="1" stop-color="#FB258D"/>
</linearGradient>
<linearGradient id="paint4_linear_521_460" x1="66.8379" y1="98.3122" x2="120.909" y2="141.071" gradientUnits="userSpaceOnUse">
<stop stop-color="#FC8D43"/>
<stop offset="1" stop-color="#FB258D"/>
</linearGradient>
<linearGradient id="paint5_linear_521_460" x1="66.8379" y1="98.3122" x2="120.909" y2="141.071" gradientUnits="userSpaceOnUse">
<stop stop-color="#FC8D43"/>
<stop offset="1" stop-color="#FB258D"/>
</linearGradient>
<linearGradient id="paint6_linear_521_460" x1="183.805" y1="68.244" x2="236.52" y2="85.2405" gradientUnits="userSpaceOnUse">
<stop stop-color="#FC8D43"/>
<stop offset="1" stop-color="#FB258D"/>
</linearGradient>
<clipPath id="clip0_521_460">
<rect width="242" height="104" fill="white"/>
</clipPath>
</defs>
</svg>
